<svg width="385" height="715" viewBox="0 0 385 715" fill="none" xmlns="http://www.w3.org/2000/svg">
<path d="M178.151 476.535C240.43 492.507 298.249 434.903 298.249 376.017C297.339 313.705 254.804 277.091 202.034 278.91C149.264 280.729 111.733 320.982 106.502 364.419C101.106 409.22 116.965 460.843 178.151 476.535Z" fill="#1A1A1A"/>
<path fill-rule="evenodd" clip-rule="evenodd" d="M177.257 494.328C262.112 509.319 315.396 450.696 318.593 376.013C317.522 302.669 267.466 259.572 205.364 261.714C143.262 263.855 99.0944 311.235 92.9377 362.362C86.5877 415.095 105.251 475.858 177.257 494.328ZM298.249 376.017C298.249 434.903 240.43 492.507 178.151 476.535C116.965 460.843 101.106 409.22 106.502 364.419C111.733 320.982 149.264 280.729 202.034 278.91C254.804 277.091 297.339 313.705 298.249 376.017Z" fill="#0E0E0E"/>
<path d="M58.1392 502.627L38.0631 444.807L27.6236 386.988L27.8913 366.377C27.8913 366.377 22.0023 366.645 18.2547 369.054C14.5072 371.463 9.95663 382.705 9.95663 382.705C9.95663 382.705 3.79995 401.978 3.2646 416.433L3.24753 416.894C2.7242 431.004 2.52168 436.465 8.08286 457.121C13.7042 478 24.9468 495.667 28.6943 501.02C32.4418 506.374 40.7399 514.405 40.7399 514.405L44.6857 517.081L42.6137 513.601L43.6844 509.051L58.1392 502.627Z" fill="#0E0E0E"/>
<path d="M87.3164 574.097C94.2761 576.506 102.574 574.097 102.574 574.097L104.448 573.624L227.581 542.511L219.551 536.622L128.004 494.328L112.746 489.778H95.8822L74.7354 496.738C74.7354 496.738 84.3719 495.131 87.3164 495.131C90.2609 495.131 95.3468 495.935 95.3468 495.935C95.3468 495.935 101.771 497.273 103.377 497.808C104.983 498.344 118.367 504.768 118.367 504.768L117.297 509.051L106.589 504.233L96.6852 501.02L88.3871 499.414C88.3871 499.414 83.0335 498.879 79.0183 499.414C75.0031 499.95 55.1947 508.248 55.1947 508.248L42.6137 513.601L44.6857 517.081L63.4928 548.668L77.9476 567.138C77.9476 567.138 80.3567 571.688 87.3164 574.097Z" fill="#0E0E0E"/>
<path d="M74.7354 496.738L58.1392 502.627L43.6844 509.051L42.6137 513.601L55.1947 508.248C55.1947 508.248 75.0031 499.95 79.0183 499.414C83.0335 498.879 88.3871 499.414 88.3871 499.414L96.6852 501.02L106.589 504.233L117.297 509.051L118.367 504.768C118.367 504.768 104.983 498.344 103.377 497.808C101.771 497.273 95.3468 495.935 95.3468 495.935C95.3468 495.935 90.2609 495.131 87.3164 495.131C84.3719 495.131 74.7354 496.738 74.7354 496.738Z" fill="#222222"/>
<path fill-rule="evenodd" clip-rule="evenodd" d="M227.581 542.511L104.448 573.624C104.448 573.624 106.589 574.633 109.802 575.168C113.014 575.703 118.367 575.168 123.721 574.097C133.443 572.517 146.326 569.626 160.929 565.943C227.946 549.042 331.977 516.011 331.977 516.011C334.118 492.99 338.669 411.08 338.669 384.044C338.669 357.008 338.669 278.845 329.032 249.936L225.707 259.572L218.748 259.827L216.071 259.925L152.631 262.249L115.423 258.234L88.9225 259.037L61.0837 269.476L41.8107 297.851L28.4266 344.962L27.8913 366.377L27.6236 386.988L38.0631 444.807L58.1392 502.627L74.7354 496.738L95.8822 489.778H112.746L128.004 494.328L219.551 536.622L227.581 542.511ZM318.593 376.013C315.396 450.696 262.112 509.319 177.257 494.328C105.251 475.858 86.5877 415.095 92.9377 362.362C99.0944 311.235 143.262 263.855 205.364 261.714C267.466 259.572 317.522 302.669 318.593 376.013Z" fill="#151515"/>
<path d="M61.0837 269.476L88.9225 259.037L115.423 258.234L152.631 262.249L149.686 253.951L141.388 248.703L118.367 234.142L84.1042 255.277L61.0837 269.476Z" fill="#212121"/>
<path d="M201.616 244.314L166.818 228.254L175.651 219.822L165.613 222.833L155.575 225.844L133.358 234.142L201.616 244.314Z" fill="#212121"/>
<path d="M118.367 234.142L141.388 248.703L183.146 256.895L216.071 259.925L218.748 259.827L210.985 244.816L201.616 244.314L133.358 234.142H118.367Z" fill="#1D1D1D"/>
<path d="M149.686 253.951L152.631 262.249L216.071 259.925L183.146 256.895L141.388 248.703L149.686 253.951Z" fill="#171717"/>
<path d="M225.707 259.572L329.032 249.936L327.694 244.314L266.663 247.794L210.985 244.816L218.748 259.827L225.707 259.572Z" fill="#171717"/>
<path d="M264.521 186.228C265.078 186.005 266.465 185.368 268.087 184.621C270.372 183.57 273.126 182.303 274.693 181.677C277.373 180.606 284.327 178.733 286.471 178.197C288.616 177.662 299.587 173.379 299.587 173.379L302.8 172.844C302.8 172.844 305.209 169.096 305.209 167.49C305.209 165.884 303.603 161.869 303.603 161.869L299.587 157.753L296.643 156.515L285.668 151.429L281.921 150.698C281.921 150.698 284.062 153.571 284.865 156.515C285.668 159.46 283.797 164.278 281.921 166.687C280.044 169.096 275.499 173.914 272.552 175.52C269.604 177.126 265.057 179.803 262.112 179.536C259.168 179.268 257.832 177.662 257.294 176.591C256.755 175.52 255.392 170.97 255.392 170.97L253.279 177.662C253.279 177.662 251.408 184.354 251.673 186.228C251.937 188.101 254.756 189.557 254.756 189.557C254.756 189.557 263.18 186.763 264.521 186.228Z" fill="white"/>
<path d="M262.112 154.909C261.306 156.247 256.491 167.49 256.491 167.49L255.392 170.97C255.392 170.97 256.755 175.52 257.294 176.591C257.832 177.662 259.168 179.268 262.112 179.536C265.057 179.803 269.604 177.126 272.552 175.52C275.499 173.914 280.044 169.096 281.921 166.687C283.797 164.278 285.668 159.46 284.865 156.515C284.062 153.571 281.921 150.698 281.921 150.698L274.693 149.288C274.693 149.288 268.272 149.288 266.93 150.091C265.589 150.894 262.918 153.571 262.112 154.909Z" fill="#2F6FCF"/>
<path d="M267.736 154.909C271.752 153.704 276.838 154.24 279.247 158.255C281.656 162.27 276.57 167.891 272.552 170.301C268.533 172.71 261.044 176.591 260.774 169.498C260.503 162.404 263.721 156.113 267.736 154.909Z" fill="black"/>
<path d="M263.816 144.202L269.072 142.596L265.057 140.99L263.816 144.202Z" fill="#201100"/>
<path d="M260.774 145.131L263.816 144.202L259.435 142.596L260.774 145.131Z" fill="#201100"/>
<path d="M329.032 249.936C338.669 278.845 338.669 357.008 338.669 384.044C338.669 411.08 334.118 492.99 331.977 516.011C331.678 536.622 316.987 587.214 313.775 617.462C310.562 647.71 311.101 699.506 311.101 699.506L405.592 711.819L401.845 3H369.188C369.188 3 309.381 9.69202 262.112 19.8639C214.843 30.0358 133.358 64.4328 133.358 64.4328C146.258 60.2861 171.451 59.7081 197.333 62.6988C201.525 63.1832 205.735 63.7612 209.914 64.4328C239.895 69.251 263.183 86.6503 281.385 103.782C286.478 108.575 290.585 114.101 293.861 119.575C302.293 133.667 305.209 147.414 305.209 147.414L307.372 154.909L309.381 161.869L312.704 173.379C312.704 173.379 318.86 196.734 321.805 209.784C324.749 222.833 327.694 244.314 327.694 244.314L329.032 249.936Z" fill="#626262"/>
<path d="M313.775 617.462C316.987 587.214 331.678 536.622 331.977 516.011C331.977 516.011 227.946 549.042 160.929 565.943C160.929 565.943 160.929 569.279 165.479 571.688C170.03 574.097 186.894 580.254 197.601 583.198C208.308 586.143 256.859 592.225 268.37 603.2C279.88 614.175 284.163 617.387 286.304 632.377C288.446 647.367 286.203 654.402 286.203 661.094C286.203 667.786 287.006 674.478 288.077 679.564C289.148 684.65 286.203 696.16 286.203 696.16L311.101 699.506C311.101 699.506 310.562 647.71 313.775 617.462Z" fill="#3A2008"/>
<path fill-rule="evenodd" clip-rule="evenodd" d="M293.861 119.575L280.448 124.126L264.521 122.787L251.673 128.944L243.11 117.701L235.347 146.41L230.529 127.338L225.707 131.888L216.071 127.338L214.736 146.41L205.364 133.762L197.333 148.217L200.01 156.515L195.727 157.318L193.586 167.49L189.035 162.672L187.429 169.364L183.952 159.192L179.666 173.111L175.651 167.49V176.591L172.368 176.479L169.762 188.904L165.613 222.833L175.651 219.822L166.818 228.254L201.616 244.314L210.985 244.816L266.663 247.794L327.694 244.314C327.694 244.314 324.749 222.833 321.805 209.784C318.86 196.734 312.704 173.379 312.704 173.379L306.012 172.308L302.8 172.844L299.587 173.379C299.587 173.379 288.616 177.662 286.471 178.197C284.327 178.733 277.373 180.606 274.693 181.677C273.126 182.303 270.372 183.57 268.087 184.621C266.465 185.368 265.078 186.005 264.521 186.228C263.18 186.763 254.756 189.557 254.756 189.557L252.743 190.243L246.854 195.061L238.288 203.091L250.869 160.53L252.705 157.318L254.388 154.374L256.07 151.429L258.365 147.414L259.435 145.54L260.774 145.131L259.435 142.596L263.816 144.202L265.057 140.99L269.072 142.596L280.448 145.406L284.511 146.41L288.574 147.414L291.825 148.217L307.372 154.909L305.209 147.414C305.209 147.414 302.293 133.667 293.861 119.575Z" fill="#3A2008"/>
<path d="M175.651 176.591V167.49L179.666 173.111L183.952 159.192L187.429 169.364L189.035 162.672L193.586 167.49L195.727 157.318L200.01 156.515L197.333 148.217L205.364 133.762L214.736 146.41L216.071 127.338L225.707 131.888L230.529 127.338L235.347 146.41L243.11 117.701L251.673 128.944L264.521 122.787L280.448 124.126L293.861 119.575C290.585 114.101 286.478 108.575 281.385 103.782C263.183 86.6503 239.895 69.251 209.914 64.4328C205.735 63.7612 201.525 63.1832 197.333 62.6988L184.485 82.3674L173.777 114.489L168.691 150.091L163.876 176.19L172.368 176.479L175.651 176.591Z" fill="#201100"/>
<path d="M118.367 234.142H133.358L155.575 225.844L165.613 222.833L169.762 188.904L172.368 176.479L163.876 176.19L168.691 150.091L173.777 114.489L184.485 82.3674L197.333 62.6988C171.451 59.7081 146.258 60.2861 133.358 64.4328C118.367 69.2511 98.0267 81.5149 89.7286 89.0594C81.4305 96.604 75.5415 108.065 74.2031 114.489C72.8647 120.913 71.7909 136.707 72.0586 170.97C72.3263 205.233 84.1042 255.277 84.1042 255.277L118.367 234.142Z" fill="#797979"/>
<path d="M250.869 160.53L238.288 203.091L246.854 195.061L252.743 190.243L254.756 189.557C254.756 189.557 251.937 188.101 251.673 186.228C251.408 184.354 253.279 177.662 253.279 177.662L255.392 170.97L256.491 167.49C256.491 167.49 261.306 156.247 262.112 154.909C262.918 153.571 265.589 150.894 266.93 150.091C268.272 149.288 274.693 149.288 274.693 149.288L281.921 150.698L285.668 151.429L296.643 156.515L299.587 157.753L303.603 161.869C303.603 161.869 305.209 165.884 305.209 167.49C305.209 169.096 302.8 172.844 302.8 172.844L306.012 172.308L312.704 173.379L309.381 161.869L307.372 154.909L291.825 148.217L288.574 147.414L284.511 146.41L280.448 145.406L269.072 142.596L263.816 144.202L260.774 145.131L259.435 145.54L258.365 147.414L256.07 151.429L254.388 154.374L252.705 157.318L250.869 160.53Z" fill="#542A03"/>
<path d="M104.448 573.624L102.574 574.097C102.574 574.097 94.2761 576.506 87.3164 574.097C80.3567 571.688 77.9476 567.138 77.9476 567.138L63.4928 548.668L44.6857 517.081M104.448 573.624L227.581 542.511L219.551 536.622L128.004 494.328L112.746 489.778H95.8822L74.7354 496.738M104.448 573.624C104.448 573.624 106.589 574.633 109.802 575.168C113.014 575.703 118.367 575.168 123.721 574.097C133.443 572.517 146.326 569.626 160.929 565.943M74.7354 496.738L58.1392 502.627M74.7354 496.738C74.7354 496.738 84.3719 495.131 87.3164 495.131C90.2609 495.131 95.3468 495.935 95.3468 495.935C95.3468 495.935 101.771 497.273 103.377 497.808C104.983 498.344 118.367 504.768 118.367 504.768L117.297 509.051L106.589 504.233L96.6853 501.02L88.3871 499.414C88.3871 499.414 83.0335 498.879 79.0183 499.414C75.0031 499.95 55.1947 508.248 55.1947 508.248L42.6137 513.601M58.1392 502.627L38.0631 444.807L27.6236 386.988L27.8913 366.377M58.1392 502.627L43.6844 509.051L42.6137 513.601M61.0837 269.476L41.8107 297.851L28.4266 344.962L27.8913 366.377M61.0837 269.476L88.9225 259.037L115.423 258.234L152.631 262.249M61.0837 269.476L84.1042 255.277M152.631 262.249L149.686 253.951L141.388 248.703M152.631 262.249L216.071 259.925M329.032 249.936L225.707 259.572L218.748 259.827M329.032 249.936C338.669 278.845 338.669 357.008 338.669 384.044C338.669 411.08 334.118 492.99 331.977 516.011M329.032 249.936L327.694 244.314M331.977 516.011C331.678 536.622 316.987 587.214 313.775 617.462C310.562 647.71 311.101 699.506 311.101 699.506M331.977 516.011C331.977 516.011 227.946 549.042 160.929 565.943M42.6137 513.601L44.6857 517.081M327.694 244.314L266.663 247.794L210.985 244.816M327.694 244.314C327.694 244.314 324.749 222.833 321.805 209.784C318.86 196.734 312.704 173.379 312.704 173.379M201.616 244.314L166.818 228.254L175.651 219.822M201.616 244.314L210.985 244.816M201.616 244.314L133.358 234.142M205.899 180.606L184.485 211.39L175.651 219.822M312.704 173.379L306.012 172.308L302.8 172.844M312.704 173.379L309.381 161.869L307.372 154.909M269.072 142.596L263.816 144.202M269.072 142.596L265.057 140.99L263.816 144.202M269.072 142.596L280.448 145.406M307.372 154.909L305.209 147.414C305.209 147.414 302.293 133.667 293.861 119.575M307.372 154.909L291.825 148.217L288.574 147.414M255.392 170.97L253.279 177.662C253.279 177.662 251.408 184.354 251.673 186.228C251.937 188.101 254.756 189.557 254.756 189.557M255.392 170.97L256.491 167.49C256.491 167.49 261.306 156.247 262.112 154.909C262.918 153.571 265.589 150.894 266.93 150.091C268.272 149.288 274.693 149.288 274.693 149.288L281.921 150.698M255.392 170.97C255.392 170.97 256.755 175.52 257.294 176.591C257.832 177.662 259.168 179.268 262.112 179.536C265.057 179.803 269.604 177.126 272.552 175.52C275.499 173.914 280.044 169.096 281.921 166.687C283.797 164.278 285.668 159.46 284.865 156.515C284.062 153.571 281.921 150.698 281.921 150.698M281.921 150.698L285.668 151.429L296.643 156.515L299.587 157.753L303.603 161.869C303.603 161.869 305.209 165.884 305.209 167.49C305.209 169.096 302.8 172.844 302.8 172.844M302.8 172.844L299.587 173.379C299.587 173.379 288.616 177.662 286.471 178.197C284.327 178.733 277.373 180.606 274.693 181.677C273.126 182.303 270.372 183.57 268.088 184.621C266.465 185.368 265.078 186.005 264.521 186.228C263.18 186.763 254.756 189.557 254.756 189.557M118.367 234.142L141.388 248.703M118.367 234.142H133.358M118.367 234.142L84.1042 255.277M141.388 248.703L183.146 256.895L216.071 259.925M216.071 259.925L218.748 259.827M218.748 259.827L210.985 244.816M133.358 234.142L155.575 225.844L165.613 222.833M175.651 219.822L165.613 222.833M165.613 222.833L169.762 188.904L172.368 176.479M241.501 150.091L256.07 151.429M256.07 151.429L254.388 154.374M256.07 151.429L258.365 147.414M252.705 157.318L250.869 160.53L238.288 203.091L246.854 195.061L252.743 190.243L254.756 189.557M252.705 157.318L246.854 155.444M252.705 157.318L254.388 154.374M254.388 154.374L249.799 154.909M260.774 145.131L259.435 145.54L258.365 147.414M260.774 145.131L255.392 142.596M260.774 145.131L263.816 144.202M260.774 145.131L259.435 142.596L263.816 144.202M258.365 147.414L250.869 145.54M84.1042 255.277C84.1042 255.277 72.3263 205.233 72.0586 170.97C71.7909 136.707 72.8647 120.913 74.2031 114.489C75.5415 108.065 81.4305 96.604 89.7286 89.0594C98.0267 81.5149 118.367 69.2511 133.358 64.4328M311.101 699.506L405.592 711.819L401.845 3H369.188C369.188 3 309.381 9.69202 262.112 19.8639C214.843 30.0358 133.358 64.4328 133.358 64.4328M311.101 699.506L286.203 696.16C286.203 696.16 289.148 684.65 288.077 679.564C287.006 674.478 286.203 667.786 286.203 661.094C286.203 654.402 288.446 647.367 286.304 632.377C284.163 617.387 279.88 614.175 268.37 603.2C256.859 592.225 208.308 586.143 197.601 583.199C186.894 580.254 170.03 574.097 165.479 571.688C160.929 569.279 160.929 565.943 160.929 565.943M27.8913 366.377C27.8913 366.377 22.0023 366.645 18.2547 369.054C14.5072 371.463 9.95663 382.705 9.95663 382.705C9.95663 382.705 3.79995 401.978 3.2646 416.433L3.24753 416.894C2.7242 431.004 2.52168 436.465 8.08286 457.121C13.7042 478 24.9467 495.667 28.6943 501.02C32.4418 506.374 40.7399 514.404 40.7399 514.404L44.6857 517.081M133.358 64.4328C146.258 60.2861 171.451 59.7081 197.333 62.6988M197.333 62.6988C201.525 63.1832 205.735 63.7612 209.914 64.4328C239.895 69.251 263.183 86.6503 281.385 103.782C286.478 108.575 290.585 114.101 293.861 119.575M197.333 62.6988L184.485 82.3674L173.777 114.489L168.691 150.091L163.876 176.19L172.368 176.479M293.861 119.575L280.448 124.126L264.521 122.787L251.673 128.944L243.11 117.701L235.347 146.41L230.529 127.338L225.707 131.888L216.071 127.338L214.736 146.41L205.364 133.762L197.333 148.217L200.01 156.515L195.727 157.318L193.586 167.49L189.035 162.672L187.429 169.364L183.952 159.192L179.666 173.111L175.651 167.49V176.591L172.368 176.479M280.448 145.406L272.552 137.644M280.448 145.406L284.511 146.41M288.574 147.414L286.471 139.116M288.574 147.414L284.511 146.41M284.511 146.41L280.448 139.116M177.257 494.328C262.112 509.319 315.396 450.696 318.593 376.013C317.522 302.669 267.466 259.572 205.364 261.714C143.262 263.855 99.0944 311.235 92.9377 362.362C86.5877 415.095 105.251 475.858 177.257 494.328ZM178.151 476.535C240.43 492.507 298.249 434.903 298.249 376.017C297.339 313.705 254.804 277.091 202.034 278.91C149.264 280.729 111.733 320.982 106.502 364.419C101.106 409.22 116.965 460.843 178.151 476.535ZM279.247 158.255C276.838 154.24 271.752 153.704 267.736 154.909C263.721 156.113 260.503 162.404 260.774 169.498C261.044 176.591 268.533 172.71 272.552 170.301C276.57 167.891 281.656 162.27 279.247 158.255Z" stroke="black" stroke-width="3"/>
<path d="M102.574 574.097C102.574 574.097 94.2761 576.506 87.3164 574.097C80.3567 571.688 77.9476 567.138 77.9476 567.138L63.4928 548.668L44.6857 517.081L40.7399 514.405C40.7399 514.405 32.4418 506.374 28.6943 501.02C24.9468 495.667 13.7042 478 8.08286 457.121C2.52168 436.465 2.7242 431.004 3.24753 416.894L3.2646 416.433C3.79995 401.978 9.95663 382.705 9.95663 382.705C9.95663 382.705 14.5072 371.463 18.2547 369.054C22.0023 366.645 27.8913 366.377 27.8913 366.377L28.4266 344.962L41.8107 297.851L61.0837 269.476L84.1042 255.277C84.1042 255.277 72.3263 205.233 72.0586 170.97C71.7909 136.707 72.8647 120.913 74.2031 114.489C75.5415 108.065 81.4305 96.604 89.7286 89.0594C98.0267 81.5149 118.367 69.2511 133.358 64.4328C133.358 64.4328 214.843 30.0358 262.112 19.8639C309.381 9.69202 369.188 3 369.188 3H401.845L405.592 711.819L311.101 699.506L286.203 696.16C286.203 696.16 289.148 684.65 288.077 679.564C287.006 674.478 286.203 667.786 286.203 661.094C286.203 654.402 288.446 647.367 286.304 632.377C284.163 617.387 279.88 614.175 268.37 603.2C256.859 592.225 208.308 586.143 197.601 583.198C186.894 580.254 170.03 574.097 165.479 571.688C160.929 569.279 160.929 565.943 160.929 565.943C146.326 569.626 133.443 572.517 123.721 574.097C118.367 575.168 113.014 575.703 109.802 575.168C106.589 574.633 104.448 573.624 104.448 573.624L102.574 574.097Z" stroke="#FFF6E0" stroke-width="5"/>
</svg>
