<svg viewBox="0 0 1116 291" fill="none" xmlns="http://www.w3.org/2000/svg">
<path d="M255.836 39.593L7 288.429H860.848L1109.68 39.593H255.836Z" fill="#1E1D02" stroke="#D2A21E" stroke-width="5"/>
<path d="M255.836 3H377.814H499.792H621.77H743.748H865.727H987.705H1109.68L1026.74 85.9452L943.793 168.89L860.848 251.836H738.869H616.891H494.913H372.935H250.956H128.978H7L89.9452 168.89L172.89 85.9452L255.836 3Z" fill="#2F6FCF"/>
<path d="M89.9452 168.89L172.89 85.9452M89.9452 168.89L7 251.836H128.978M89.9452 168.89H211.923M172.89 85.9452L255.836 3H377.814M172.89 85.9452H294.869M377.814 3L294.869 85.9452M377.814 3H499.792M211.923 168.89L294.869 85.9452M211.923 168.89L128.978 251.836M211.923 168.89H333.902M294.869 85.9452H416.847M128.978 251.836H250.956M499.792 3L416.847 85.9452M499.792 3H621.77M333.902 168.89L416.847 85.9452M333.902 168.89L250.956 251.836M333.902 168.89H455.88M416.847 85.9452H538.825M250.956 251.836H372.935M621.77 3L538.825 85.9452M621.77 3H743.748M455.88 168.89L538.825 85.9452M455.88 168.89L372.935 251.836M455.88 168.89H577.858M538.825 85.9452H660.803M372.935 251.836H494.913M743.748 3L660.803 85.9452M743.748 3H865.727M577.858 168.89L660.803 85.9452M577.858 168.89L494.913 251.836M577.858 168.89H699.836M660.803 85.9452H782.781M494.913 251.836H616.891M865.727 3L782.781 85.9452M865.727 3H987.705M699.836 168.89L782.781 85.9452M699.836 168.89L616.891 251.836M699.836 168.89H821.815M782.781 85.9452H904.76M616.891 251.836H738.869M987.705 3L904.76 85.9452M987.705 3H1109.68L1026.74 85.9452M821.815 168.89L904.76 85.9452M821.815 168.89L738.869 251.836M821.815 168.89H943.793M904.76 85.9452H1026.74M738.869 251.836H860.848L943.793 168.89M943.793 168.89L1026.74 85.9452" stroke="#FFF6E0" stroke-width="5"/>
</svg>
