<?xml version="1.0" encoding="UTF-8" standalone="no"?>
<svg viewBox="0 0 1524.6007 419.72601" fill="none" version="1.1" id="panelSingle"
   xmlns="http://www.w3.org/2000/svg" xmlns:svg="http://www.w3.org/2000/svg">
   <path
      d="m 337.81549,85.4451 -41.472,41.4729 -41.473,41.472 -41.472,41.473 -41.473,41.472 -41.472,41.473 -41.472897,41.473 -41.4725,41.472 -41.4726003,41.473 h 60.9891003 60.988897 60.989 60.989 60.989 60.989 60.989 60.989 60.99 60.989 60.989 60.989 60.989 60.989 60.989 60.989 60.98501 60.99 l 41.48,-41.473 41.47,-41.472 41.47,-41.473 41.47,-41.473 41.48,-41.472 41.47,-41.473 41.47,-41.472 41.47,-41.4729 41.48,-41.4725 41.47,-41.4726 h -60.99 -60.99 -60.99 -60.99 -60.99 -60.99 -60.98 -60.99 -60.99301 -60.989 -60.989 -60.989 -60.989 -60.989 -60.989 -60.989 -60.989 -60.989 l -41.473,41.4726 z"
      fill="#01322a" stroke="#fff6e0" stroke-width="5" id="panelSingle1" />
   <path
      d="m 459.79449,85.4451 -41.473,41.4729 -41.473,41.472 -41.472,41.473 -41.473,41.472 -41.472,41.473 -41.473,41.473 h 60.989 60.989 60.989 60.99 60.989 60.989 60.989 60.989 60.989 60.989 60.989 60.989 60.98801 60.99 l 41.47,-41.473 41.48,-41.473 41.47,-41.472 41.47,-41.473 41.47,-41.472 41.48,-41.4729 h -60.99 -60.99 -60.99 -60.99 -60.99 -60.98801 -60.99 -60.989 -60.989 -60.989 -60.989 -60.989 -60.989 z"
      fill="#1e1d02" stroke="#d2a21e" stroke-width="5" id="panelSingle2" />
   <path
      d="m 418.32149,90.3243 41.473,-41.4726 h 60.989 60.989 60.989 60.989 60.989 60.989 60.989 60.99 60.98801 60.99 60.99 60.99 60.99 60.99 l -41.48,41.4726 -41.47,41.4727 -41.47,41.472 -41.47,41.473 -41.48,41.473 -41.47,41.472 h -60.99 -60.98801 -60.989 -60.989 -60.989 -60.989 -60.989 -60.989 -60.989 -60.989 -60.99 -60.989 -60.989 -60.989 l 41.473,-41.472 41.472,-41.473 41.473,-41.473 41.472,-41.472 z"
      fill="#2f6fcf" id="panelSingle3" />
   <path
      d="m 293.90349,214.742 41.473,-41.473 41.472,-41.472 m -82.945,82.945 -41.472,41.473 -41.473,41.472 h 60.989 60.989 m -39.033,-82.945 h 60.989 60.99 m -39.034,-82.945 41.473,-41.4727 41.473,-41.4726 h 60.989 60.989 m -204.924,82.9453 h 60.99 60.989 m 82.945,-82.9453 -41.473,41.4726 -41.472,41.4727 m 82.945,-82.9453 h 60.989 60.989 m -287.868,165.8903 41.472,-41.473 41.473,-41.472 m -82.945,82.945 -41.473,41.473 -41.473,41.472 m 82.946,-82.945 h 60.989 60.989 m -39.033,-82.945 h 60.989 60.989 m -287.869,165.89 h 60.989 60.99 m 248.835,-248.8353 -41.472,41.4726 -41.473,41.4727 m 82.945,-82.9453 h 60.989 60.989 m -287.868,165.8903 41.472,-41.473 41.473,-41.472 m -82.945,82.945 -41.473,41.473 -41.472,41.472 m 82.945,-82.945 h 60.989 60.989 m -39.033,-82.945 h 60.989 60.989 m -287.868,165.89 h 60.989 60.989 m 248.835,-248.8353 -41.472,41.4726 -41.473,41.4727 m 82.945,-82.9453 h 60.989 60.99 m -287.869,165.8903 41.473,-41.473 41.472,-41.472 m -82.945,82.945 -41.473,41.473 -41.472,41.472 m 82.945,-82.945 h 60.989 60.989 m -39.033,-82.945 h 60.989 60.989 m -287.868,165.89 h 60.989 60.989 m 248.836,-248.8353 -41.473,41.4726 -41.473,41.4727 m 82.946,-82.9453 h 60.98801 60.99 m -287.86901,165.8903 41.473,-41.473 41.472,-41.472 m -82.945,82.945 -41.472,41.473 -41.473,41.472 m 82.945,-82.945 h 60.989 60.989 m -39.033,-82.945 h 60.989 60.99 m -287.869,165.89 h 60.989 60.989 m 248.83601,-248.8353 -41.47,41.4726 -41.47501,41.4727 m 82.94501,-82.9453 h 60.99 60.99 m -287.87101,165.8903 41.473,-41.473 41.473,-41.472 m -82.946,82.945 -41.472,41.473 -41.473,41.472 m 82.945,-82.945 h 60.99 60.99101 m -39.03501,-82.945 h 60.98501 60.99 m -287.86601,165.89 h 60.989 60.989 m 248.83801,-248.8353 -41.47,41.4726 -41.48,41.4727 m 82.95,-82.9453 h 60.99 60.99 l -41.48,41.4726 -41.47,41.4727 m -204.92,82.945 41.47,-41.473 41.47,-41.472 m -82.94,82.945 -41.47501,41.473 -41.473,41.472 m 82.94801,-82.945 h 60.99 60.99 m -39.04,-82.945 h 60.99 60.99 m -287.86801,165.89 h 60.98801 60.99 l 41.47,-41.472 41.48,-41.473 m 0,0 41.47,-41.473 41.47,-41.472"
      stroke="#fff6e0" stroke-width="5" id="panelSingle4" />
</svg>