<svg xmlns="http://www.w3.org/2000/svg" width="1628" height="662" viewBox="0 0 1628 662" fill="none">
  <path d="M87.5 638.5C87.5 638.5 202 633 241.5 632C254.172 631.679 268.543 631.461 283.505 631.313M376 631H375.991C361.994 631 345.807 631 328.979 631.046M376 631C376 631 522 620 550 617C578 614 602 610 632 606C643.634 604.449 677.225 602.296 713.994 600.242M376 631C413.408 631 605.383 635.14 713.653 636.361M1473 659C1432.38 657.154 1316.78 650.621 1246.93 647.661M1599 598L1549 594C1549 594 1532.9 592.674 1509.99 590.795M1484.5 368H1489M1484.5 368H1483V365.5M1484.5 368L1484.48 375M1489 368V362.5M1489 368L1497.5 367.5M1489 362.5H1483V365.5M1489 362.5C1489 362.5 1491 364.5 1492.5 365.5C1494 366.5 1497.5 367.5 1497.5 367.5M1484.48 375C1484.48 375 1488.5 375.5 1492 375.5C1495.5 375.5 1498 375 1498 375M1484.48 375L1484.29 458.5M1498 375L1497.5 367.5M1498 375L1508.7 567.551M1497.5 367.5L1499.5 367.382M1499.5 352.5H1505.5C1505.5 352.5 1512 353.5 1512.5 360C1513 366.5 1506 367 1506 367L1499.5 367.382M1499.5 352.5C1499.5 352.5 1494.5 353.5 1494.5 359.5C1494.5 365.5 1499.5 367.382 1499.5 367.382M1499.5 352.5C1499.5 352.5 1498.71 352.137 1497.5 351.643M1488.5 349H1485.5C1485.5 349 1481.86 349.405 1479.21 351.5M1488.5 349L1522 323L1584.5 279.5L1626 252L1588.5 286L1528.5 334.5L1508 343.5L1497.5 351.643M1488.5 349C1491.44 349.326 1495.22 350.716 1497.5 351.643M1483 365.5C1483 365.5 1481.94 365.255 1480.67 364.5M1476.5 357C1476.5 361.17 1478.81 363.388 1480.67 364.5M1476.5 357L1472.5 355.5L1469.5 355L1439.5 340L1391.97 313.395M1476.5 357C1476.5 354.452 1477.69 352.699 1479.21 351.5M1480.67 364.5L1481.5 393L1480 410L1484.29 458.5M1484.29 458.5L1484.04 574.709M1479.21 351.5L1459 340L1446.5 329L1403.53 310.696M1377.5 321.5C1377.5 321.5 1380.5 322 1384.5 322C1388.5 322 1391 321 1391 321M1377.5 321.5V313.5M1377.5 321.5L1375.52 579.882M1391 321L1390.5 313.5M1391 321L1391.1 323M1377.5 313.5H1375.5L1375.29 311M1377.5 313.5H1381.5M1381 307.5H1375L1375.29 311M1381 307.5L1381.5 313.5M1381 307.5C1381 307.5 1383 310.5 1385 311.5C1388.5 313 1390.5 313.5 1390.5 313.5M1381.5 313.5H1390.5M1390.5 313.5C1390.5 313.5 1389.7 312.898 1388.86 311.649C1387.82 310.11 1386.72 307.588 1387 304C1387.01 303.887 1387.02 303.776 1387.03 303.666C1387.71 297.448 1393.5 296 1393.5 296M1390.5 313.5L1391.97 313.395M1393.5 296L1397.5 296.5C1397.5 296.5 1406.5 297.5 1406.5 305C1406.5 307.69 1405.17 309.494 1403.53 310.696M1393.5 296L1385.5 294.25M1377.5 292.5L1378.5 288.5M1377.5 292.5L1385.5 294.25M1377.5 292.5C1377.5 292.5 1373.23 293.449 1370.57 296.654M1375.29 311C1375.29 311 1369.99 310.61 1368.75 305M1368.75 305C1368.59 304.261 1368.5 303.431 1368.5 302.5C1368.5 301.741 1368.58 301.036 1368.73 300.381C1368.9 299.606 1369.17 298.901 1369.5 298.263M1368.75 305L1363 306L1318.5 305L1248.64 302.183M1369.5 298.263L1365.5 297.5L1363.51 297.458M1369.5 298.263C1369.81 297.672 1370.17 297.137 1370.57 296.654M1378.5 288.5L1421.5 214.5L1477 129L1412 259.5L1396.5 274.5L1386.12 293.139M1378.5 288.5L1386.12 293.139M1385.5 294.25L1386.12 293.139M1391.1 323L1464 476.5L1422.5 407.5L1392.44 350M1391.1 323L1392.44 350M1392.44 350L1404.41 582.192M1218 357C1218 357 1223 357.5 1226 357.5C1229 357.5 1232.5 356.5 1232.5 356.5M1218 357V348M1218 357L1216 353V347.5M1218 357L1214.08 565.051M1232.5 356.5L1232.01 347.131M1232.5 356.5L1233.32 373.5M1222 341H1214.5L1214.82 345.215M1222 341V347M1222 341C1222 341 1223 342.5 1226.5 344.5C1229.12 345.998 1230.9 346.728 1231.64 347M1232 347C1232 347 1227.5 343.5 1228 336C1228.5 328.5 1237 328.5 1237 328.5M1232 347H1243.5C1243.5 347 1250 346.5 1250 338.5C1250 330.5 1243.5 330 1243.5 330L1237 328.5M1232 347L1232.01 347.131M1232 347H1231.64M1222 347V347.5H1216M1222 347H1231.64M1214.82 345.215L1215 347.5H1216M1214.82 345.215C1214.82 345.215 1208.97 345.043 1207.73 337.5M1237 328.5C1237 328.5 1232.83 326.998 1227.76 325.73M1232.01 347.131C1232.01 347.131 1231.88 347.091 1231.64 347M1218.5 324.082C1217.81 324.029 1217.14 324 1216.5 324C1214.5 324 1207.5 326.5 1207.5 334.5C1207.5 335.611 1207.58 336.607 1207.73 337.5M1218.5 324.082L1220 320.5M1218.5 324.082C1221.45 324.309 1224.76 324.978 1227.76 325.73M1220 320.5L1227.76 325.73M1220 320.5L1233.52 301.573M1227.76 325.73L1232 323L1231.5 321L1242.5 307.5L1248.64 302.183M1208 329.5L1203 327.5M1203 327.5V337M1203 327.5L1180 324.5L1164 317L1115.5 311L1057.5 305L1019.5 303L1170.5 332.5L1180 333.5L1203 337M1203 337L1207.73 337.5M1233.32 373.5L1260.5 462L1285 538L1254.5 471.5L1235.58 420M1233.32 373.5L1235.58 420M1235.58 420L1243.04 569.641M718 310C718 310 717 309.5 717 308C717 306.5 717.5 306 717.5 306M718 310H735.5M718 310L715.881 463.5M717.5 306H736M717.5 306V297.5M736 306C736 306 737 306.5 737 308C737 309.5 735.5 310 735.5 310M736 306V297.5M735.5 310L746.719 538.942M736.5 288.5H718.5L715 295.5M736.5 288.5L735 295.5M736.5 288.5C736.5 288.5 736.5 291.5 737 294C737.132 294.658 737.229 295.143 737.3 295.5M717.5 297.5H736M717.5 297.5L715 295.5M736 297.5L735 295.5M736 297.5L737.5 296.5C737.5 296.5 737.5 296.5 737.3 295.5M715 295.5H735M715 295.5H706.5M737.3 295.5H772.5C777.5 295 782.5 293 782.5 285C782.5 274.5 771.5 273.5 771.5 273.5L768 273L749 271.5L712.213 268.321M706.5 295.5C706.5 295.5 701.5 292.5 701 282C700.958 281.116 700.971 280.283 701.031 279.5M706.5 295.5L708 298.5M695.5 299.5L696.5 298.5V291L689.5 288C689.5 288 686 286.5 685 282.5C685 280 686 279 686 279M695.5 299.5C695.5 299.5 697.5 301 702.5 300.5C707.5 300 708 298.5 708 298.5M695.5 299.5L699 342L705.5 377L707.5 412L710 447.5L715.336 503M708 298.5L715.881 463.5M715.881 463.5L715.336 503M715.336 503L714.915 533.504M686 279L695 284.5L701.031 279.5M686 279L660.5 263.5L600 220.5L585 207L602 211L676 249L685 262.5L695.2 270M701.031 279.5C701.714 270.537 708.5 268 708.5 268L712.213 268.321M695.2 270L702 275L698.651 271.346M695.2 270L696.5 269L698.651 271.346M698.651 271.346L701.5 265.5C701.5 265.5 701.515 265.456 701.554 265.382M712.213 268.321C712.213 268.321 708 264 705 264C702.515 264 701.746 265.029 701.554 265.382M712.213 268.321L722 248L732.5 236L788 87.5L741 183L724 215L701.554 265.382M286.5 225C286.5 225 286 224.5 285.5 223.5C285 222.5 285 221 285.5 220C286 219 286.5 219 286.5 219M286.5 225C286.5 225 292 225.5 297.5 225.5C303 225.5 310 224.5 310 224.5M286.5 225L285.663 338.5M286.5 219V210M286.5 219C286.5 219 291 219.5 297.5 219.5C304 219.5 310 219 310 219M286.5 210C287.833 210.167 292.1 210.5 298.5 210.5M286.5 210L284 209M298.5 210.5C304.9 210.5 308.833 209.833 310 209.5V219M298.5 210.5L292.5 208.5M310 219C310 219 310.5 219 311 220C311.5 221.5 311.5 222 311 223.5C310.5 224.5 310 224.5 310 224.5M310 224.5L324.692 539.216M284 209L292.5 208.5M284 209L283.833 205.5M292.5 208.5L292 199M292 199C293 201.167 295.754 204.451 298.5 205C301 205.5 303 204.913 303.5 204.62M292 199L283.5 198.5L283.833 205.5M319 181.5C319 181.5 331 181.5 331 195C331 207.5 319 207.5 319 207.5M319 181.5C319 181.5 306.5 181.5 306.5 195C306.5 206.5 319 207.5 319 207.5M319 181.5H312.5M319 207.5H311.5C311.5 207.5 306.99 207.5 303.5 204.62M312.5 181.5C312.5 181.5 299.5 181.5 299.5 195C299.5 199.837 301.297 202.802 303.5 204.62M312.5 181.5C312.5 181.5 305.721 177.963 298.5 176.321M312.5 181.5L335 164.5L365.5 151.5L536.5 3L298.5 173V176.321M283.833 205.5C283.833 205.5 283.457 205.339 282.855 205M282.855 205V212H281L285 251L282.5 287L285.663 338.5M282.855 205C280.531 203.691 274.844 199.732 274.515 192.188M285.663 338.5L284.133 546.151M274.515 192.188C274.505 191.962 274.5 191.733 274.5 191.5C274.5 187.294 275.915 183.707 278.262 181M274.515 192.188L268.5 188L264 188.5L2 54.5L217.5 141.5L241.5 160.5L265.5 172.5H268.5L278.262 181M278.262 181C281.495 177.271 286.496 175.21 292 175.5C294.09 175.5 296.315 175.824 298.5 176.321M713.994 600.242L713.653 636.361M713.994 600.242L714.915 533.504M749.629 598.324C796.056 595.907 838 594 838 594C838 594 976 585 999 585C1022 585 1124 580 1149 580C1161.03 580 1187.17 580.347 1213.79 580.54M749.629 598.324L750.958 636.788M749.629 598.324L746.719 538.942M1233.52 301.573L1236.81 296.959M1233.52 301.573L1194.5 300L1236.81 296.959M1248.64 302.183L1256.28 295.561M1256.28 295.561L1278 294L1327 292.5L1341.5 297L1363.51 297.458M1256.28 295.561L1257.5 294.5L1347.5 163.5L1338.5 169.5L1245 285.5L1236.81 296.959M1403.53 310.696C1400.91 312.621 1397.5 313 1397.5 313L1391.97 313.395M1363.51 297.458L1335 281.5L1370.57 296.654M1212.55 646.377C1218.44 646.565 1224.44 646.772 1230.5 647C1235.61 647.192 1241.11 647.414 1246.93 647.661M1212.55 646.377L1213.79 580.54M1212.55 646.377C1153.82 644.5 1105.5 644.5 1105.5 644.5C1105.5 644.5 868.388 638.431 750.958 636.788M1246.93 647.661L1243.59 580.667M1243.59 580.667C1261.08 580.67 1276.26 580.504 1284.5 580C1290.23 579.649 1296.1 579.298 1302 578.986M1243.59 580.667L1243.04 569.641M1213.79 580.54L1214.08 565.051M713.653 636.361C718.259 636.413 722.715 636.459 727 636.5C734.234 636.569 742.268 636.666 750.958 636.788M283.505 631.313C298.44 631.166 313.964 631.088 328.979 631.046M283.505 631.313L284.133 546.151M328.979 631.046L324.692 539.216M1375.52 579.882C1383.51 580.512 1393.41 581.305 1404.41 582.192M1375.52 579.882C1366.99 579.208 1360.65 578.72 1357.5 578.5C1341.03 577.351 1321.33 577.963 1302 578.986M1404.41 582.192C1417.37 583.237 1431.85 584.412 1446.5 585.605M1484 588.667C1493.23 589.422 1502.02 590.142 1509.99 590.795M1484 588.667C1471.95 587.681 1459.16 586.636 1446.5 585.605M1484 588.667L1484.04 574.709M1509.99 590.795L1508.7 567.551M150.5 569L284.133 546.151M1302 578.986L1243.04 569.641M1446.5 585.605L1484.04 574.709M1610.5 538L1508.7 567.551M324.692 539.216C324.692 539.216 414.5 528 536.5 525.5C673 528.5 714.915 533.504 714.915 533.504M746.719 538.942C746.719 538.942 750.958 541.555 788 546C838 552 851 548.5 937.5 546C1024 543.5 1214.08 565.051 1214.08 565.051" stroke="#FFF6E0" stroke-width="5"/>
</svg>