<?xml version="1.0" encoding="UTF-8" standalone="no"?>
<svg
   viewBox="0 0 1346.527 546.72638"
   fill="none"
   version="1.1"
   id="windmill"
   sodipodi:docname="windmill.svg"
   xml:space="preserve"
   inkscape:version="1.3.2 (091e20ef0f, 2023-11-25, custom)"
   xmlns:inkscape="http://www.inkscape.org/namespaces/inkscape"
   xmlns:sodipodi="http://sodipodi.sourceforge.net/DTD/sodipodi-0.dtd"
   xmlns="http://www.w3.org/2000/svg"
   xmlns:svg="http://www.w3.org/2000/svg"><defs
     id="defs1" /><sodipodi:namedview
     id="namedview1"
     pagecolor="#505050"
     bordercolor="#eeeeee"
     borderopacity="1"
     inkscape:showpageshadow="0"
     inkscape:pageopacity="0"
     inkscape:pagecheckerboard="true"
     inkscape:deskcolor="#505050"
     inkscape:zoom="1.0085201"
     inkscape:cx="673.26372"
     inkscape:cy="273.17254"
     inkscape:window-width="1896"
     inkscape:window-height="1015"
     inkscape:window-x="0"
     inkscape:window-y="0"
     inkscape:window-maximized="1"
     inkscape:current-layer="svg1" /><g
     id="g63"
     transform="matrix(0.82770646,0,0,0.82770646,-0.71317147,-0.79928825)"><path
       fill-rule="evenodd"
       clip-rule="evenodd"
       d="m 242.38,632.76 c -39.5,1 -154,6.5 -154,6.5 l 63,-69.5 133.633,-22.849 1.53,-207.651 -3.163,-51.5 2.5,-36 -4,-39 h 1.855 v -7 c -2.324,-1.309 -8.011,-5.268 -8.34,-12.812 l -6.015,-4.188 -4.5,0.5 -262,-134 215.5,87 24,19 24,12 h 3 l 9.762,8.5 c 3.233,-3.729 8.234,-5.79 13.738,-5.5 2.09,0 4.315,0.324 6.5,0.821 v -3.321 l 238,-170 -171,148.5 -30.5,13 -22.5,17 h 6.5 c 0,0 12,0 12,13.5 0,12.5 -12,12.5 -12,12.5 h -7.5 c 0,0 -4.51,0 -8,-2.88 -0.5,0.293 -2.5,0.88 -5,0.38 -2.746,-0.549 -5.5,-3.833 -6.5,-6 l 0.5,9.5 6,2 c 6.4,0 10.333,-0.667 11.5,-1 v 9.5 c 0,0 0.5,0 1,1 0.5,1.5 0.5,2 0,3.5 -0.5,1 -1,1 -1,1 l 14.692,314.716 c 0,0 89.808,-11.216 211.808,-13.716 136.5,3 178.415,8.004 178.415,8.004 l 0.421,-30.504 -5.336,-55.5 -2.5,-35.5 -2,-35 -6.5,-35 -3.5,-42.5 1,-1 v -7.5 l -7,-3 c 0,0 -3.5,-1.5 -4.5,-5.5 0,-2.5 1,-3.5 1,-3.5 l -25.5,-15.5 -60.5,-43 -15,-13.5 17,4 74,38 9,13.5 10.2,7.5 1.3,-1 2.151,2.346 2.849,-5.846 c 0,0 0.015,-0.044 0.054,-0.118 l 22.446,-50.382 17,-32 47,-95.5 -55.5,148.5 -10.5,12 -9.787,20.321 36.787,3.179 19,1.5 3.5,0.5 c 0,0 11,1 11,11.5 0,8 -5,10 -10,10.5 h -35.2 l 0.2,1 -1.5,1 v 8.5 c 0,0 1,0.5 1,2 0,1.5 -1.5,2 -1.5,2 l 11.219,228.942 c 0,0 4.239,2.613 41.281,7.058 36.582,4.39 53.358,3.694 93.605,2.026 h 0.002 c 14.762,-0.612 32.681,-1.355 55.893,-2.026 86.5,-2.5 276.58,19.051 276.58,19.051 l 3.92,-208.051 -2,-4 v -5.5 h -1 l -0.18,-2.285 c 0,0 -5.85,-0.172 -7.09,-7.715 -0.15,-0.893 -0.23,-1.889 -0.23,-3 0,-8 7,-10.5 9,-10.5 0.64,0 1.31,0.029 2,0.082 l 1.5,-3.582 13.52,-18.927 -39.02,-1.573 42.31,-3.041 8.19,-11.459 93.5,-116 9,-6 -90,131 -1.22,1.061 21.72,-1.561 49,-1.5 14.5,4.5 22.01,0.458 -28.51,-15.958 35.57,15.154 c 2.66,-3.205 6.93,-4.154 6.93,-4.154 l 1,-4 43,-74 55.5,-85.5 -65,130.5 -15.5,15 -10.38,18.639 -0.62,1.111 8,1.75 4,0.5 c 0,0 9,1 9,8.5 0,2.69 -1.33,4.494 -2.97,5.696 l 42.97,18.304 12.5,11 20.21,11.5 c 2.65,-2.095 6.29,-2.5 6.29,-2.5 h 3 l 33.5,-26 62.5,-43.5 41.5,-27.5 -37.5,34 -60,48.5 -20.5,9 -10.5,8.143 c 1.21,0.494 2,0.857 2,0.857 h 6 c 0,0 6.5,1 7,7.5 0.5,6.5 -6.5,7 -6.5,7 l -6.5,0.382 -2,0.118 0.5,7.5 10.7,192.551 101.8,-29.551 -11.5,60 -126,61 c -15.81,-0.719 -42.97,-2.147 -74.38,-3.798 l -0.03,-0.002 v 0 c -49.29,-2.592 -109,-5.732 -151.66,-7.539 -5.82,-0.247 -11.32,-0.469 -16.43,-0.661 -6.06,-0.228 -12.06,-0.435 -17.95,-0.623 -58.73,-1.877 -107.05,-1.877 -107.05,-1.877 0,0 -237.112,-6.069 -354.542,-7.712 -8.69,-0.122 -16.724,-0.219 -23.958,-0.288 -4.285,-0.041 -8.741,-0.087 -13.347,-0.139 -55.123,-0.622 -131.942,-2 -199.014,-3.203 h -0.011 C 450.844,632.758 395.242,631.76 376.88,631.76 h -0.009 c -13.997,0 -30.184,0 -47.012,0.046 -15.015,0.042 -30.539,0.12 -45.474,0.267 -14.962,0.148 -29.333,0.366 -42.005,0.687 z m 961.5,-295 -23,-3.5 -9.5,-1 -151,-29.5 38,2 58,6 48.5,6 16,7.5 23,3 z m 174.5,-15.5 v -8 h -2 l -0.21,-2.5 c 0,0 -5.3,-0.39 -6.54,-6 l -5.75,1 -44.5,-1 -69.86,-2.817 -6.14,5.317 -11,13.5 0.5,2 -4.24,2.73 c 5.07,1.268 9.24,2.77 9.24,2.77 l 6.5,1.5 c 0,0 6.5,0.5 6.5,8.5 0,8 -6.5,8.5 -6.5,8.5 h -11.5 l 0.01,0.131 0.49,9.369 0.82,17 27.18,88.5 24.5,76 -30.5,-66.5 -18.92,-51.5 7.46,149.641 58.96,9.345 c 19.33,-1.023 39.03,-1.635 55.5,-0.486 3.15,0.22 9.49,0.708 18.02,1.382 z m 99,35.5 c 0,4.17 2.31,6.388 4.17,7.5 l 0.83,28.5 -1.5,17 4.29,48.5 -0.25,116.209 -37.54,10.896 c -14.65,-1.193 -29.13,-2.368 -42.09,-3.413 l -11.97,-232.192 30.06,57.5 41.5,69 -72.9,-153.5 -0.1,-2 -0.5,-7.5 1.47,-0.105 47.53,26.605 30,15 3,0.5 z"
       fill="#01322a"
       id="path1-5"
       style="display:inline" /><path
       d="m 87.5,638.5 c 0,0 114.5,-5.5 154,-6.5 12.672,-0.321 27.043,-0.539 42.005,-0.687 M 376,631 h -0.009 c -13.997,0 -30.184,0 -47.012,0.046 M 376,631 c 0,0 146,-11 174,-14 28,-3 52,-7 82,-11 11.634,-1.551 45.225,-3.704 81.994,-5.758 M 376,631 c 37.408,0 229.383,4.14 337.653,5.361 M 1473,659 c -40.62,-1.846 -156.22,-8.379 -226.07,-11.339 M 1599,598 l -50,-4 c 0,0 -16.1,-1.326 -39.01,-3.205 M 1484.5,368 h 4.5 m -4.5,0 h -1.5 v -2.5 m 1.5,2.5 -0.02,7 m 4.52,-7 v -5.5 m 0,5.5 8.5,-0.5 m -8.5,-5 h -6 v 3 m 6,-3 c 0,0 2,2 3.5,3 1.5,1 5,2 5,2 m -13.02,7.5 c 0,0 4.02,0.5 7.52,0.5 3.5,0 6,-0.5 6,-0.5 m -13.52,0 -0.19,83.5 M 1498,375 l -0.5,-7.5 m 0.5,7.5 10.7,192.551 m -11.2,-200.051 2,-0.118 m 0,-14.882 h 6 c 0,0 6.5,1 7,7.5 0.5,6.5 -6.5,7 -6.5,7 l -6.5,0.382 m 0,-14.882 c 0,0 -5,1 -5,7 0,6 5,7.882 5,7.882 m 0,-14.882 c 0,0 -0.79,-0.363 -2,-0.857 m -9,-2.643 h -3 c 0,0 -3.64,0.405 -6.29,2.5 m 9.29,-2.5 33.5,-26 62.5,-43.5 41.5,-27.5 -37.5,34 -60,48.5 -20.5,9 -10.5,8.143 m -9,-2.643 c 2.94,0.326 6.72,1.716 9,2.643 M 1483,365.5 c 0,0 -1.06,-0.245 -2.33,-1 m -4.17,-7.5 c 0,4.17 2.31,6.388 4.17,7.5 m -4.17,-7.5 -4,-1.5 -3,-0.5 -30,-15 -47.53,-26.605 M 1476.5,357 c 0,-2.548 1.19,-4.301 2.71,-5.5 m 1.46,13 0.83,28.5 -1.5,17 4.29,48.5 m 0,0 -0.25,116.209 M 1479.21,351.5 1459,340 1446.5,329 1403.53,310.696 M 1377.5,321.5 c 0,0 3,0.5 7,0.5 4,0 6.5,-1 6.5,-1 m -13.5,0.5 v -8 m 0,8 -1.98,258.382 M 1391,321 l -0.5,-7.5 m 0.5,7.5 0.1,2 m -13.6,-9.5 h -2 l -0.21,-2.5 m 2.21,2.5 h 4 m -0.5,-6 h -6 l 0.29,3.5 m 5.71,-3.5 0.5,6 m -0.5,-6 c 0,0 2,3 4,4 3.5,1.5 5.5,2 5.5,2 m -9,0 h 9 m 0,0 c 0,0 -0.8,-0.602 -1.64,-1.851 -1.04,-1.539 -2.14,-4.061 -1.86,-7.649 0.01,-0.113 0.02,-0.224 0.03,-0.334 0.68,-6.218 6.47,-7.666 6.47,-7.666 m -3,17.5 1.47,-0.105 m 1.53,-17.395 4,0.5 c 0,0 9,1 9,8.5 0,2.69 -1.33,4.494 -2.97,5.696 M 1393.5,296 l -8,-1.75 m -8,-1.75 1,-4 m -1,4 8,1.75 m -8,-1.75 c 0,0 -4.27,0.949 -6.93,4.154 m 4.72,14.346 c 0,0 -5.3,-0.39 -6.54,-6 m 0,0 c -0.16,-0.739 -0.25,-1.569 -0.25,-2.5 0,-0.759 0.08,-1.464 0.23,-2.119 0.17,-0.775 0.44,-1.48 0.77,-2.118 m -0.75,6.737 -5.75,1 -44.5,-1 -69.86,-2.817 m 120.86,-3.92 -4,-0.763 -1.99,-0.042 m 5.99,0.805 c 0.31,-0.591 0.67,-1.126 1.07,-1.609 m 7.93,-8.154 43,-74 55.5,-85.5 -65,130.5 -15.5,15 -10.38,18.639 m -7.62,-4.639 7.62,4.639 m -0.62,1.111 0.62,-1.111 m 4.98,29.861 72.9,153.5 -41.5,-69 -30.06,-57.5 m -1.34,-27 1.34,27 m 0,0 11.97,232.192 M 1218,357 c 0,0 5,0.5 8,0.5 3,0 6.5,-1 6.5,-1 M 1218,357 v -9 m 0,9 -2,-4 v -5.5 m 2,9.5 -3.92,208.051 m 18.42,-208.551 -0.49,-9.369 m 0.49,9.369 0.82,17 M 1222,341 h -7.5 l 0.32,4.215 M 1222,341 v 6 m 0,-6 c 0,0 1,1.5 4.5,3.5 2.62,1.498 4.4,2.228 5.14,2.5 m 0.36,0 c 0,0 -4.5,-3.5 -4,-11 0.5,-7.5 9,-7.5 9,-7.5 m -5,18.5 h 11.5 c 0,0 6.5,-0.5 6.5,-8.5 0,-8 -6.5,-8.5 -6.5,-8.5 l -6.5,-1.5 m -5,18.5 0.01,0.131 M 1232,347 h -0.36 m -9.64,0 v 0.5 h -6 m 6,-0.5 h 9.64 m -16.82,-1.785 0.18,2.285 h 1 m -1.18,-2.285 c 0,0 -5.85,-0.172 -7.09,-7.715 m 29.27,-9 c 0,0 -4.17,-1.502 -9.24,-2.77 m 4.25,21.401 c 0,0 -0.13,-0.04 -0.37,-0.131 m -13.14,-22.918 c -0.69,-0.053 -1.36,-0.082 -2,-0.082 -2,0 -9,2.5 -9,10.5 0,1.111 0.08,2.107 0.23,3 m 10.77,-13.418 1.5,-3.582 m -1.5,3.582 c 2.95,0.227 6.26,0.896 9.26,1.648 m -7.76,-5.23 7.76,5.23 m -7.76,-5.23 13.52,-18.927 m -5.76,24.157 4.24,-2.73 -0.5,-2 11,-13.5 6.14,-5.317 M 1208,329.5 l -5,-2 m 0,0 v 9.5 m 0,-9.5 -23,-3 -16,-7.5 -48.5,-6 -58,-6 -38,-2 151,29.5 9.5,1 23,3.5 m 0,0 4.73,0.5 m 25.59,36 27.18,88.5 24.5,76 -30.5,-66.5 -18.92,-51.5 m -2.26,-46.5 2.26,46.5 m 0,0 7.46,149.641 M 718,310 c 0,0 -1,-0.5 -1,-2 0,-1.5 0.5,-2 0.5,-2 m 0.5,4 h 17.5 m -17.5,0 -2.119,153.5 M 717.5,306 H 736 m -18.5,0 v -8.5 M 736,306 c 0,0 1,0.5 1,2 0,1.5 -1.5,2 -1.5,2 m 0.5,-4 v -8.5 m -0.5,12.5 11.219,228.942 M 736.5,288.5 h -18 l -3.5,7 m 21.5,-7 -1.5,7 m 1.5,-7 c 0,0 0,3 0.5,5.5 0.132,0.658 0.229,1.143 0.3,1.5 m -19.8,2 H 736 m -18.5,0 -2.5,-2 m 21,2 -1,-2 m 1,2 1.5,-1 c 0,0 0,0 -0.2,-1 m -22.3,0 h 20 m -20,0 h -8.5 m 30.8,0 h 35.2 c 5,-0.5 10,-2.5 10,-10.5 0,-10.5 -11,-11.5 -11,-11.5 L 768,273 749,271.5 712.213,268.321 M 706.5,295.5 c 0,0 -5,-3 -5.5,-13.5 -0.042,-0.884 -0.029,-1.717 0.031,-2.5 m 5.469,16 1.5,3 m -12.5,1 1,-1 V 291 l -7,-3 c 0,0 -3.5,-1.5 -4.5,-5.5 0,-2.5 1,-3.5 1,-3.5 m 9.5,20.5 c 0,0 2,1.5 7,1 5,-0.5 5.5,-2 5.5,-2 m -12.5,1 3.5,42.5 6.5,35 2,35 2.5,35.5 5.336,55.5 M 708,298.5 l 7.881,165 m 0,0 -0.545,39.5 m 0,0 -0.421,30.504 M 686,279 l 9,5.5 6.031,-5 M 686,279 660.5,263.5 600,220.5 585,207 l 17,4 74,38 9,13.5 10.2,7.5 m 5.831,9.5 C 701.714,270.537 708.5,268 708.5,268 l 3.713,0.321 M 695.2,270 l 6.8,5 -3.349,-3.654 M 695.2,270 l 1.3,-1 2.151,2.346 m 0,0 2.849,-5.846 c 0,0 0.015,-0.044 0.054,-0.118 m 10.659,2.939 c 0,0 -4.213,-4.321 -7.213,-4.321 -2.485,0 -3.254,1.029 -3.446,1.382 m 10.659,2.939 L 722,248 732.5,236 788,87.5 741,183 724,215 701.554,265.382 M 286.5,225 c 0,0 -0.5,-0.5 -1,-1.5 -0.5,-1 -0.5,-2.5 0,-3.5 0.5,-1 1,-1 1,-1 m 0,6 c 0,0 5.5,0.5 11,0.5 5.5,0 12.5,-1 12.5,-1 m -23.5,0.5 -0.837,113.5 M 286.5,219 v -9 m 0,9 c 0,0 4.5,0.5 11,0.5 6.5,0 12.5,-0.5 12.5,-0.5 m -23.5,-9 c 1.333,0.167 5.6,0.5 12,0.5 m -12,-0.5 -2.5,-1 m 14.5,1.5 c 6.4,0 10.333,-0.667 11.5,-1 v 9.5 m -11.5,-8.5 -6,-2 M 310,219 c 0,0 0.5,0 1,1 0.5,1.5 0.5,2 0,3.5 -0.5,1 -1,1 -1,1 m 0,0 14.692,314.716 M 284,209 l 8.5,-0.5 m -8.5,0.5 -0.167,-3.5 m 8.667,3 -0.5,-9.5 m 0,0 c 1,2.167 3.754,5.451 6.5,6 2.5,0.5 4.5,-0.087 5,-0.38 M 292,199 l -8.5,-0.5 0.333,7 M 319,181.5 c 0,0 12,0 12,13.5 0,12.5 -12,12.5 -12,12.5 m 0,-26 c 0,0 -12.5,0 -12.5,13.5 0,11.5 12.5,12.5 12.5,12.5 m 0,-26 h -6.5 m 6.5,26 h -7.5 c 0,0 -4.51,0 -8,-2.88 m 9,-23.12 c 0,0 -13,0 -13,13.5 0,4.837 1.797,7.802 4,9.62 m 9,-23.12 c 0,0 -6.779,-3.537 -14,-5.179 m 14,5.179 22.5,-17 30.5,-13 171,-148.5 -238,170 v 3.321 M 283.833,205.5 c 0,0 -0.376,-0.161 -0.978,-0.5 m 0,0 v 7 H 281 l 4,39 -2.5,36 3.163,51.5 M 282.855,205 c -2.324,-1.309 -8.011,-5.268 -8.34,-12.812 m 11.148,146.312 -1.53,207.651 m -9.618,-353.963 c -0.01,-0.226 -0.015,-0.455 -0.015,-0.688 0,-4.206 1.415,-7.793 3.762,-10.5 M 274.515,192.188 268.5,188 264,188.5 2,54.5 l 215.5,87 24,19 24,12 h 3 l 9.762,8.5 m 0,0 c 3.233,-3.729 8.234,-5.79 13.738,-5.5 2.09,0 4.315,0.324 6.5,0.821 m 415.494,423.921 -0.341,36.119 m 0.341,-36.119 0.921,-66.738 m 34.714,64.82 C 796.056,595.907 838,594 838,594 c 0,0 138,-9 161,-9 23,0 125,-5 150,-5 12.03,0 38.17,0.347 64.79,0.54 m -464.161,17.784 1.329,38.464 m -1.329,-38.464 -2.91,-59.382 m 486.801,-237.369 3.29,-4.614 m -3.29,4.614 -39.02,-1.573 42.31,-3.041 m 11.83,5.224 7.64,-6.622 m 0,0 21.72,-1.561 49,-1.5 14.5,4.5 22.01,0.458 m -107.23,-1.897 1.22,-1.061 90,-131 -9,6 -93.5,116 -8.19,11.459 m 166.72,13.737 c -2.62,1.925 -6.03,2.304 -6.03,2.304 l -5.53,0.395 M 1363.51,297.458 1335,281.5 l 35.57,15.154 m -158.02,349.723 c 5.89,0.188 11.89,0.395 17.95,0.623 5.11,0.192 10.61,0.414 16.43,0.661 m -34.38,-1.284 1.24,-65.837 m -1.24,65.837 C 1153.82,644.5 1105.5,644.5 1105.5,644.5 c 0,0 -237.112,-6.069 -354.542,-7.712 m 495.972,10.873 -3.34,-66.994 m 0,0 c 17.49,0.003 32.67,-0.163 40.91,-0.667 5.73,-0.351 11.6,-0.702 17.5,-1.014 m -58.41,1.681 -0.55,-11.026 m -29.25,10.899 0.29,-15.489 m -500.427,71.31 c 4.606,0.052 9.062,0.098 13.347,0.139 7.234,0.069 15.268,0.166 23.958,0.288 m -467.453,-5.475 c 14.935,-0.147 30.459,-0.225 45.474,-0.267 m -45.474,0.267 0.628,-85.162 m 44.846,84.895 -4.287,-91.83 m 1050.828,40.666 c 7.99,0.63 17.89,1.423 28.89,2.31 m -28.89,-2.31 c -8.53,-0.674 -14.87,-1.162 -18.02,-1.382 -16.47,-1.149 -36.17,-0.537 -55.5,0.486 m 102.41,3.206 c 12.96,1.045 27.44,2.22 42.09,3.413 m 37.5,3.062 c 9.23,0.755 18.02,1.475 25.99,2.128 M 1484,588.667 c -12.05,-0.986 -24.84,-2.031 -37.5,-3.062 m 37.5,3.062 0.04,-13.958 m 25.95,16.086 -1.29,-23.244 M 150.5,569 284.133,546.151 M 1302,578.986 l -58.96,-9.345 m 203.46,15.964 37.54,-10.896 M 1610.5,538 1508.7,567.551 M 324.692,539.216 c 0,0 89.808,-11.216 211.808,-13.716 136.5,3 178.415,8.004 178.415,8.004 m 31.804,5.438 c 0,0 4.239,2.613 41.281,7.058 50,6 63,2.5 149.5,0 86.5,-2.5 276.58,19.051 276.58,19.051"
       stroke="#fff6e0"
       stroke-width="5"
       id="path1"
       style="display:inline" /></g></svg>
