<svg xmlns="http://www.w3.org/2000/svg" width="1624" height="656" viewBox="0 0 1624 656" fill="none">
  <path fill-rule="evenodd" clip-rule="evenodd" d="M239.5 629C200 630 85.5 635.5 85.5 635.5L148.5 566L282.133 543.151L283.663 335.5L280.5 284L283 248L279 209H280.855V202C278.531 200.691 272.844 196.732 272.515 189.188L266.5 185L262 185.5L0 51.5L215.5 138.5L239.5 157.5L263.5 169.5H266.5L276.262 178C279.495 174.271 284.496 172.21 290 172.5C292.09 172.5 294.315 172.824 296.5 173.321V170L534.5 0L363.5 148.5L333 161.5L310.5 178.5H317C317 178.5 329 178.5 329 192C329 204.5 317 204.5 317 204.5H309.5C309.5 204.5 304.99 204.5 301.5 201.62C301 201.913 299 202.5 296.5 202C293.754 201.451 291 198.167 290 196L290.5 205.5L296.5 207.5C302.9 207.5 306.833 206.833 308 206.5V216C308 216 308.5 216 309 217C309.5 218.5 309.5 219 309 220.5C308.5 221.5 308 221.5 308 221.5L322.692 536.216C322.692 536.216 412.5 525 534.5 522.5C671 525.5 712.915 530.504 712.915 530.504L713.336 500L708 444.5L705.5 409L703.5 374L697 339L693.5 296.5L694.5 295.5V288L687.5 285C687.5 285 684 283.5 683 279.5C683 277 684 276 684 276L658.5 260.5L598 217.5L583 204L600 208L674 246L683 259.5L693.2 267L694.5 266L696.651 268.346L699.5 262.5C699.5 262.5 699.515 262.456 699.554 262.382L722 212L739 180L786 84.5L730.5 233L720 245L710.213 265.321L747 268.5L766 270L769.5 270.5C769.5 270.5 780.5 271.5 780.5 282C780.5 290 775.5 292 770.5 292.5H735.3L735.5 293.5L734 294.5V303C734 303 735 303.5 735 305C735 306.5 733.5 307 733.5 307L744.719 535.942C744.719 535.942 748.958 538.555 786 543C822.582 547.39 839.358 546.694 879.605 545.026H879.607C894.369 544.414 912.288 543.671 935.5 543C1022 540.5 1212.08 562.051 1212.08 562.051L1216 354L1214 350V344.5H1213L1212.82 342.215C1212.82 342.215 1206.97 342.043 1205.73 334.5C1205.58 333.607 1205.5 332.611 1205.5 331.5C1205.5 323.5 1212.5 321 1214.5 321C1215.14 321 1215.81 321.029 1216.5 321.082L1218 317.5L1231.52 298.573L1192.5 297L1234.81 293.959L1243 282.5L1336.5 166.5L1345.5 160.5L1255.5 291.5L1254.28 292.561L1276 291L1325 289.5L1339.5 294L1361.51 294.458L1333 278.5L1368.57 293.654C1371.23 290.449 1375.5 289.5 1375.5 289.5L1376.5 285.5L1419.5 211.5L1475 126L1410 256.5L1394.5 271.5L1384.12 290.139L1383.5 291.25L1391.5 293L1395.5 293.5C1395.5 293.5 1404.5 294.5 1404.5 302C1404.5 304.69 1403.17 306.494 1401.53 307.696L1444.5 326L1457 337L1477.21 348.5C1479.86 346.405 1483.5 346 1483.5 346H1486.5L1520 320L1582.5 276.5L1624 249L1586.5 283L1526.5 331.5L1506 340.5L1495.5 348.643C1496.71 349.137 1497.5 349.5 1497.5 349.5H1503.5C1503.5 349.5 1510 350.5 1510.5 357C1511 363.5 1504 364 1504 364L1497.5 364.382L1495.5 364.5L1496 372L1506.7 564.551L1608.5 535L1597 595L1471 656C1455.19 655.281 1428.03 653.853 1396.62 652.202L1396.59 652.2L1396.59 652.2C1347.3 649.608 1287.59 646.468 1244.93 644.661C1239.11 644.414 1233.61 644.192 1228.5 644C1222.44 643.772 1216.44 643.565 1210.55 643.377C1151.82 641.5 1103.5 641.5 1103.5 641.5C1103.5 641.5 866.388 635.431 748.958 633.788C740.268 633.666 732.234 633.569 725 633.5C720.715 633.459 716.259 633.413 711.653 633.361C656.53 632.739 579.711 631.361 512.639 630.158L512.628 630.158C447.964 628.998 392.362 628 374 628H373.991C359.994 628 343.807 628 326.979 628.046C311.964 628.088 296.44 628.166 281.505 628.313C266.543 628.461 252.172 628.679 239.5 629ZM1201 334L1178 330.5L1168.5 329.5L1017.5 300L1055.5 302L1113.5 308L1162 314L1178 321.5L1201 324.5V334ZM1375.5 318.5V310.5H1373.5L1373.29 308C1373.29 308 1367.99 307.61 1366.75 302L1361 303L1316.5 302L1246.64 299.183L1240.5 304.5L1229.5 318L1230 320L1225.76 322.73C1230.83 323.998 1235 325.5 1235 325.5L1241.5 327C1241.5 327 1248 327.5 1248 335.5C1248 343.5 1241.5 344 1241.5 344H1230L1230.01 344.131L1230.5 353.5L1231.32 370.5L1258.5 459L1283 535L1252.5 468.5L1233.58 417L1241.04 566.641L1300 575.986C1319.33 574.963 1339.03 574.351 1355.5 575.5C1358.65 575.72 1364.99 576.208 1373.52 576.882L1375.5 318.5ZM1474.5 354C1474.5 358.17 1476.81 360.388 1478.67 361.5L1479.5 390L1478 407L1482.29 455.5L1482.04 571.709L1444.5 582.605C1429.85 581.412 1415.37 580.237 1402.41 579.192L1390.44 347L1420.5 404.5L1462 473.5L1389.1 320L1389 318L1388.5 310.5L1389.97 310.395L1437.5 337L1467.5 352L1470.5 352.5L1474.5 354Z" fill="#01322A"/>
</svg>