<?xml version="1.0" encoding="UTF-8"?>
<svg fill="none" version="1.1" viewBox="0 0 1346.5 546.73" xml:space="preserve" xmlns="http://www.w3.org/2000/svg" id="windmill"><g transform="matrix(.82771 0 0 .82771 -.71317 -.79929)"><path d="m242.38 632.76c-39.5 1-154 6.5-154 6.5l63-69.5 133.63-22.849 1.53-207.65-3.163-51.5 2.5-36-4-39h1.855v-7c-2.324-1.309-8.011-5.268-8.34-12.812l-6.015-4.188-4.5 0.5-262-134 215.5 87 24 19 24 12h3l9.762 8.5c3.233-3.729 8.234-5.79 13.738-5.5 2.09 0 4.315 0.324 6.5 0.821v-3.321l238-170-171 148.5-30.5 13-22.5 17h6.5s12 0 12 13.5c0 12.5-12 12.5-12 12.5h-7.5s-4.51 0-8-2.88c-0.5 0.293-2.5 0.88-5 0.38-2.746-0.549-5.5-3.833-6.5-6l0.5 9.5 6 2c6.4 0 10.333-0.667 11.5-1v9.5s0.5 0 1 1c0.5 1.5 0.5 2 0 3.5-0.5 1-1 1-1 1l14.692 314.72s89.808-11.216 211.81-13.716c136.5 3 178.42 8.004 178.42 8.004l0.421-30.504-5.336-55.5-2.5-35.5-2-35-6.5-35-3.5-42.5 1-1v-7.5l-7-3s-3.5-1.5-4.5-5.5c0-2.5 1-3.5 1-3.5l-25.5-15.5-60.5-43-15-13.5 17 4 74 38 9 13.5 10.2 7.5 1.3-1 2.151 2.346 2.849-5.846s0.015-0.044 0.054-0.118l22.446-50.382 17-32 47-95.5-55.5 148.5-10.5 12-9.787 20.321 36.787 3.179 19 1.5 3.5 0.5s11 1 11 11.5c0 8-5 10-10 10.5h-35.2l0.2 1-1.5 1v8.5s1 0.5 1 2-1.5 2-1.5 2l11.219 228.94s4.239 2.613 41.281 7.058c36.582 4.39 53.358 3.694 93.605 2.026h2e-3c14.762-0.612 32.681-1.355 55.893-2.026 86.5-2.5 276.58 19.051 276.58 19.051l3.92-208.05-2-4v-5.5h-1l-0.18-2.285s-5.85-0.172-7.09-7.715c-0.15-0.893-0.23-1.889-0.23-3 0-8 7-10.5 9-10.5 0.64 0 1.31 0.029 2 0.082l1.5-3.582 13.52-18.927-39.02-1.573 42.31-3.041 8.19-11.459 93.5-116 9-6-90 131-1.22 1.061 21.72-1.561 49-1.5 14.5 4.5 22.01 0.458-28.51-15.958 35.57 15.154c2.66-3.205 6.93-4.154 6.93-4.154l1-4 43-74 55.5-85.5-65 130.5-15.5 15-10.38 18.639-0.62 1.111 8 1.75 4 0.5s9 1 9 8.5c0 2.69-1.33 4.494-2.97 5.696l42.97 18.304 12.5 11 20.21 11.5c2.65-2.095 6.29-2.5 6.29-2.5h3l33.5-26 62.5-43.5 41.5-27.5-37.5 34-60 48.5-20.5 9-10.5 8.143c1.21 0.494 2 0.857 2 0.857h6s6.5 1 7 7.5-6.5 7-6.5 7l-6.5 0.382-2 0.118 0.5 7.5 10.7 192.55 101.8-29.551-11.5 60-126 61c-15.81-0.719-42.97-2.147-74.38-3.798l-0.03-2e-3c-49.29-2.592-109-5.732-151.66-7.539-5.82-0.247-11.32-0.469-16.43-0.661-6.06-0.228-12.06-0.435-17.95-0.623-58.73-1.877-107.05-1.877-107.05-1.877s-237.11-6.069-354.54-7.712c-8.69-0.122-16.724-0.219-23.958-0.288-4.285-0.041-8.741-0.087-13.347-0.139-55.123-0.622-131.94-2-199.01-3.203h-0.011c-64.664-1.16-120.27-2.158-138.63-2.158h-9e-3c-13.997 0-30.184 0-47.012 0.046-15.015 0.042-30.539 0.12-45.474 0.267-14.962 0.148-29.333 0.366-42.005 0.687zm961.5-295-23-3.5-9.5-1-151-29.5 38 2 58 6 48.5 6 16 7.5 23 3zm174.5-15.5v-8h-2l-0.21-2.5s-5.3-0.39-6.54-6l-5.75 1-44.5-1-69.86-2.817-6.14 5.317-11 13.5 0.5 2-4.24 2.73c5.07 1.268 9.24 2.77 9.24 2.77l6.5 1.5s6.5 0.5 6.5 8.5-6.5 8.5-6.5 8.5h-11.5l0.01 0.131 0.49 9.369 0.82 17 27.18 88.5 24.5 76-30.5-66.5-18.92-51.5 7.46 149.64 58.96 9.345c19.33-1.023 39.03-1.635 55.5-0.486 3.15 0.22 9.49 0.708 18.02 1.382zm99 35.5c0 4.17 2.31 6.388 4.17 7.5l0.83 28.5-1.5 17 4.29 48.5-0.25 116.21-37.54 10.896c-14.65-1.193-29.13-2.368-42.09-3.413l-11.97-232.19 30.06 57.5 41.5 69-72.9-153.5-0.1-2-0.5-7.5 1.47-0.105 47.53 26.605 30 15 3 0.5z" clip-rule="evenodd" fill="transparent" fill-rule="evenodd" style="transition:1s" id="background"/><path d="m87.5 638.5s114.5-5.5 154-6.5c12.672-0.321 27.043-0.539 42.005-0.687m92.495-0.313h-9e-3c-13.997 0-30.184 0-47.012 0.046m47.021-0.046s146-11 174-14 52-7 82-11c11.634-1.551 45.225-3.704 81.994-5.758m-337.99 30.758c37.408 0 229.38 4.14 337.65 5.361m759.35 22.639c-40.62-1.846-156.22-8.379-226.07-11.339m352.07-49.661-50-4s-16.1-1.326-39.01-3.205m-25.49-222.8h4.5m-4.5 0h-1.5v-2.5m1.5 2.5-0.02 7m4.52-7v-5.5m0 5.5 8.5-0.5m-8.5-5h-6v3m6-3s2 2 3.5 3 5 2 5 2m-13.02 7.5s4.02 0.5 7.52 0.5 6-0.5 6-0.5m-13.52 0-0.19 83.5m13.71-83.5-0.5-7.5m0.5 7.5 10.7 192.55m-11.2-200.05 2-0.118m0-14.882h6s6.5 1 7 7.5-6.5 7-6.5 7l-6.5 0.382m0-14.882s-5 1-5 7 5 7.882 5 7.882m0-14.882s-0.79-0.363-2-0.857m-9-2.643h-3s-3.64 0.405-6.29 2.5m9.29-2.5 33.5-26 62.5-43.5 41.5-27.5-37.5 34-60 48.5-20.5 9-10.5 8.143m-9-2.643c2.94 0.326 6.72 1.716 9 2.643m-14.5 13.857s-1.06-0.245-2.33-1m-4.17-7.5c0 4.17 2.31 6.388 4.17 7.5m-4.17-7.5-4-1.5-3-0.5-30-15-47.53-26.605m84.53 43.605c0-2.548 1.19-4.301 2.71-5.5m1.46 13 0.83 28.5-1.5 17 4.29 48.5-0.25 116.21m-4.83-223.21-20.21-11.5-12.5-11-42.97-18.304m-26.03 10.804s3 0.5 7 0.5 6.5-1 6.5-1m-13.5 0.5v-8m0 8-1.98 258.38m15.48-258.88-0.5-7.5m0.5 7.5 0.1 2m-13.6-9.5h-2l-0.21-2.5m2.21 2.5h4m-0.5-6h-6l0.29 3.5m5.71-3.5 0.5 6m-0.5-6s2 3 4 4c3.5 1.5 5.5 2 5.5 2m-9 0h9s-0.8-0.602-1.64-1.851c-1.04-1.539-2.14-4.061-1.86-7.649 0.01-0.113 0.02-0.224 0.03-0.334 0.68-6.218 6.47-7.666 6.47-7.666m-3 17.5 1.47-0.105m1.53-17.395 4 0.5s9 1 9 8.5c0 2.69-1.33 4.494-2.97 5.696m-10.03-14.696-8-1.75m-8-1.75 1-4m-1 4 8 1.75m-8-1.75s-4.27 0.949-6.93 4.154m4.72 14.346s-5.3-0.39-6.54-6c-0.16-0.739-0.25-1.569-0.25-2.5 0-0.759 0.08-1.464 0.23-2.119 0.17-0.775 0.44-1.48 0.77-2.118m-0.75 6.737-5.75 1-44.5-1-69.86-2.817m120.86-3.92-4-0.763-1.99-0.042m5.99 0.805c0.31-0.591 0.67-1.126 1.07-1.609m7.93-8.154 43-74 55.5-85.5-65 130.5-15.5 15-10.38 18.639m-7.62-4.639 7.62 4.639m-0.62 1.111 0.62-1.111m4.98 29.861 72.9 153.5-41.5-69-30.06-57.5m-1.34-27 1.34 27 11.97 232.19m-186.41-225.19s5 0.5 8 0.5 6.5-1 6.5-1m-14.5 0.5v-9m0 9-2-4v-5.5m2 9.5-3.92 208.05m18.42-208.55-0.49-9.369m0.49 9.369 0.82 17m-11.32-32.5h-7.5l0.32 4.215m7.18-4.215v6m0-6s1 1.5 4.5 3.5c2.62 1.498 4.4 2.228 5.14 2.5m0.36 0s-4.5-3.5-4-11 9-7.5 9-7.5m-5 18.5h11.5s6.5-0.5 6.5-8.5-6.5-8.5-6.5-8.5l-6.5-1.5m-5 18.5 0.01 0.131m-0.01-0.131h-0.36m-9.64 0v0.5h-6m6-0.5h9.64m-16.82-1.785 0.18 2.285h1m-1.18-2.285s-5.85-0.172-7.09-7.715m29.27-9s-4.17-1.502-9.24-2.77m4.25 21.401s-0.13-0.04-0.37-0.131m-13.14-22.918c-0.69-0.053-1.36-0.082-2-0.082-2 0-9 2.5-9 10.5 0 1.111 0.08 2.107 0.23 3m10.77-13.418 1.5-3.582m-1.5 3.582c2.95 0.227 6.26 0.896 9.26 1.648m-7.76-5.23 7.76 5.23m-7.76-5.23 13.52-18.927m-5.76 24.157 4.24-2.73-0.5-2 11-13.5 6.14-5.317m-40.64 27.317-5-2v9.5m0-9.5-23-3-16-7.5-48.5-6-58-6-38-2 151 29.5 9.5 1 23 3.5 4.73 0.5m25.59 36 27.18 88.5 24.5 76-30.5-66.5-18.92-51.5m-2.26-46.5 2.26 46.5 7.46 149.64m-525.04-259.64s-1-0.5-1-2 0.5-2 0.5-2m0.5 4h17.5m-17.5 0-2.119 153.5m1.619-157.5h18.5m-18.5 0v-8.5m18.5 8.5s1 0.5 1 2-1.5 2-1.5 2m0.5-4v-8.5m-0.5 12.5 11.219 228.94m-10.219-250.44h-18l-3.5 7m21.5-7-1.5 7m1.5-7s0 3 0.5 5.5c0.132 0.658 0.229 1.143 0.3 1.5m-19.8 2h18.5m-18.5 0-2.5-2m21 2-1-2m1 2 1.5-1-0.2-1m-22.3 0h20m-20 0h-8.5m30.8 0h35.2c5-0.5 10-2.5 10-10.5 0-10.5-11-11.5-11-11.5l-3.5-0.5-19-1.5-36.787-3.179m-5.713 27.179s-5-3-5.5-13.5c-0.042-0.884-0.029-1.717 0.031-2.5m5.469 16 1.5 3m-12.5 1 1-1v-7.5l-7-3s-3.5-1.5-4.5-5.5c0-2.5 1-3.5 1-3.5m9.5 20.5s2 1.5 7 1 5.5-2 5.5-2m-12.5 1 3.5 42.5 6.5 35 2 35 2.5 35.5 5.336 55.5m-7.336-204.5 7.881 165-0.545 39.5-0.421 30.504m-28.915-254.5 9 5.5 6.031-5m-15.031-0.5-25.5-15.5-60.5-43-15-13.5 17 4 74 38 9 13.5 10.2 7.5m5.831 9.5c0.683-8.963 7.469-11.5 7.469-11.5l3.713 0.321m-17.013 1.679 6.8 5-3.349-3.654m-3.451-1.346 1.3-1 2.151 2.346 2.849-5.846s0.015-0.044 0.054-0.118m10.659 2.939s-4.213-4.321-7.213-4.321c-2.485 0-3.254 1.029-3.446 1.382m10.659 2.939 9.787-20.321 10.5-12 55.5-148.5-47 95.5-17 32-22.446 50.382m-415.05-40.382s-0.5-0.5-1-1.5-0.5-2.5 0-3.5 1-1 1-1m0 6s5.5 0.5 11 0.5 12.5-1 12.5-1m-23.5 0.5-0.837 113.5m0.837-119.5v-9m0 9s4.5 0.5 11 0.5 12.5-0.5 12.5-0.5m-23.5-9c1.333 0.167 5.6 0.5 12 0.5m-12-0.5-2.5-1m14.5 1.5c6.4 0 10.333-0.667 11.5-1v9.5m-11.5-8.5-6-2m17.5 10.5s0.5 0 1 1c0.5 1.5 0.5 2 0 3.5-0.5 1-1 1-1 1l14.692 314.72m-40.692-330.22 8.5-0.5m-8.5 0.5-0.167-3.5m8.667 3-0.5-9.5c1 2.167 3.754 5.451 6.5 6 2.5 0.5 4.5-0.087 5-0.38m-11.5-5.62-8.5-0.5 0.333 7m35.167-24s12 0 12 13.5c0 12.5-12 12.5-12 12.5m0-26s-12.5 0-12.5 13.5c0 11.5 12.5 12.5 12.5 12.5m0-26h-6.5m6.5 26h-7.5s-4.51 0-8-2.88m9-23.12s-13 0-13 13.5c0 4.837 1.797 7.802 4 9.62m9-23.12s-6.779-3.537-14-5.179m14 5.179 22.5-17 30.5-13 171-148.5-238 170v3.321m-14.667 29.179s-0.376-0.161-0.978-0.5v7h-1.855l4 39-2.5 36 3.163 51.5m-2.808-133.5c-2.324-1.309-8.011-5.268-8.34-12.812m11.148 146.31-1.53 207.65m-9.618-353.96c-0.01-0.226-0.015-0.455-0.015-0.688 0-4.206 1.415-7.793 3.762-10.5m-3.747 11.188-6.015-4.188-4.5 0.5-262-134 215.5 87 24 19 24 12h3l9.762 8.5c3.233-3.729 8.234-5.79 13.738-5.5 2.09 0 4.315 0.324 6.5 0.821m415.49 423.92-0.341 36.119m0.341-36.119 0.921-66.738m34.714 64.82c46.427-2.417 88.371-4.324 88.371-4.324s138-9 161-9 125-5 150-5c12.03 0 38.17 0.347 64.79 0.54m-464.16 17.784 1.329 38.464m-1.329-38.464-2.91-59.382m486.8-237.37 3.29-4.614m-3.29 4.614-39.02-1.573 42.31-3.041m11.83 5.224 7.64-6.622 21.72-1.561 49-1.5 14.5 4.5 22.01 0.458m-107.23-1.897 1.22-1.061 90-131-9 6-93.5 116-8.19 11.459m166.72 13.737c-2.62 1.925-6.03 2.304-6.03 2.304l-5.53 0.395m-28.46-15.937-28.51-15.958 35.57 15.154m-158.02 349.72c5.89 0.188 11.89 0.395 17.95 0.623 5.11 0.192 10.61 0.414 16.43 0.661m-34.38-1.284 1.24-65.837m-1.24 65.837c-58.73-1.877-107.05-1.877-107.05-1.877s-237.11-6.069-354.54-7.712m495.97 10.873-3.34-66.994c17.49 3e-3 32.67-0.163 40.91-0.667 5.73-0.351 11.6-0.702 17.5-1.014m-58.41 1.681-0.55-11.026m-29.25 10.899 0.29-15.489m-500.43 71.31c4.606 0.052 9.062 0.098 13.347 0.139 7.234 0.069 15.268 0.166 23.958 0.288m-467.45-5.475c14.935-0.147 30.459-0.225 45.474-0.267m-45.474 0.267 0.628-85.162m44.846 84.895-4.287-91.83m1050.8 40.666c7.99 0.63 17.89 1.423 28.89 2.31m-28.89-2.31c-8.53-0.674-14.87-1.162-18.02-1.382-16.47-1.149-36.17-0.537-55.5 0.486m102.41 3.206c12.96 1.045 27.44 2.22 42.09 3.413m37.5 3.062c9.23 0.755 18.02 1.475 25.99 2.128m-25.99-2.128c-12.05-0.986-24.84-2.031-37.5-3.062m37.5 3.062 0.04-13.958m25.95 16.086-1.29-23.244m-1358.2 1.449 133.63-22.849m1017.9 32.835-58.96-9.345m203.46 15.964 37.54-10.896m126.46-36.709-101.8 29.551m-1184-28.335s89.808-11.216 211.81-13.716c136.5 3 178.42 8.004 178.42 8.004m31.804 5.438s4.239 2.613 41.281 7.058c50 6 63 2.5 149.5 0s276.58 19.051 276.58 19.051" stroke-width="5" id="stroke"/></g></svg>
