<svg viewBox="0 0 934 490" fill="none" xmlns="http://www.w3.org/2000/svg">
<path d="M88.6405 307.517C123.055 307.517 134.216 311.7 134.216 311.7C130.961 324.249 134.216 373.054 141.192 402.801H172.816V370.264H183.047V361.433H272.803L322.589 365.616H338.842V366.982L377.907 370.264V385.138H403.95L420.692 391.645H435.109H453.246L460.222 393.471C472.778 342.376 460.222 311.699 460.222 311.699L475.094 309.375L478.359 186.202V4H506.262V186.202L508.04 287.065C508.04 287.065 533.236 284.741 549.513 284.741C555.153 284.741 564.198 285.354 573.612 286.157L573.696 284.741V57.4523H595.554V284.741L595.687 288.26C604.27 289.147 610.435 289.853 610.435 289.853C599.274 321.925 618.806 421.392 639.734 461.83H602.064H563.465H515.286L518.354 486H472.778H387.208H271.408H262.107H128.636H4V439.985H19.3469C43.995 386.997 44.46 326.574 39.3444 311.7C39.3444 311.7 54.2262 307.517 88.6405 307.517Z" fill="#01322A"/>
<path d="M682.984 461.83C695.076 400.476 715.073 340.517 703.912 301.938C703.912 301.938 733.676 298.22 756.464 298.22H785.711C785.063 290.408 783.732 283.081 781.577 276.374C781.577 276.374 799.249 270.332 839.709 270.332C880.169 270.332 897.376 274.98 897.376 274.98C879.704 326.108 919.234 415.815 929 476.704H749.488C750.83 471.866 752.248 466.9 753.715 461.83H682.984Z" fill="#01322A"/>
<path d="M141.192 402.801C134.216 373.054 130.961 324.249 134.216 311.7C134.216 311.7 123.055 307.517 88.6405 307.517C54.2262 307.517 39.3444 311.7 39.3444 311.7C44.46 326.574 43.995 386.997 19.3469 439.985M141.192 402.801H128.636V439.985M141.192 402.801H172.816V370.264H183.047M19.3469 439.985H128.636M19.3469 439.985H4V486H128.636M128.636 439.985V486M262.107 370.264V486M262.107 370.264H183.047M262.107 370.264H271.408M262.107 486H128.636M262.107 486H271.408M183.047 370.264V361.433H272.803M272.803 361.433V370.264H271.408M272.803 361.433L377.907 370.264V385.138M271.408 370.264V486M271.408 486H387.208M377.907 385.138H376.046M377.907 385.138H403.95L420.692 391.645M349.538 385.138V383.279H341.167L338.842 380.955V365.616H319.309V380.955M349.538 385.138V430.224M349.538 385.138H360.234M349.538 385.138H343.492V398.617L338.842 405.589H323.495V430.224H306.288V408.843L319.309 396.758V380.955M319.309 380.955L295.126 385.138V398.617L287.22 406.519V446.492H380.232V429.294H376.046V385.138M376.046 385.138H371.396M420.692 391.645H435.109M420.692 391.645H417.901V400.012L420.692 405.589H435.109V391.645M472.778 396.758L453.246 391.645H435.109M472.778 396.758V433.477M472.778 396.758L475.094 309.375M472.778 466.013H460.222M472.778 466.013V433.477M472.778 466.013L486.265 461.83V450.675H490.451M472.778 466.013V472.056M460.222 466.013V418.604H445.34L437.899 426.041V468.337M460.222 466.013V468.337H437.899M437.899 468.337H423.017M423.017 468.337V416.28H417.901V479.028M423.017 468.337V479.028H417.901M417.901 479.028H413.251M402.555 479.028V445.097M402.555 479.028H395.579V445.097M402.555 479.028H404.88M402.555 445.097H395.579M402.555 445.097V414.42H387.208L377.907 423.716V394.899L387.208 404.195H402.555H413.251V479.028M395.579 445.097V439.055H387.208V483.676M404.88 479.028V483.676H387.208M404.88 479.028H413.251M387.208 483.676V486M360.234 385.138V430.224M360.234 385.138H371.396M371.396 385.138V430.224M387.208 486H472.778M472.778 486V472.056M472.778 486H518.354L515.286 461.83M472.778 433.477H484.87L490.451 439.055V450.675M490.451 450.675H496.961V464.154L472.778 472.056M475.094 309.375L478.359 186.202V4H506.262V186.202L508.04 287.065M475.094 309.375L460.222 311.699C460.222 311.699 472.778 342.376 460.222 393.471M508.04 287.065L510.448 423.716L515.286 461.83M508.04 287.065C508.04 287.065 533.236 284.741 549.513 284.741C555.153 284.741 564.198 285.354 573.612 286.157M573.612 286.157L573.696 284.741V57.4523H595.554V284.741L595.687 288.26M573.612 286.157L563.465 456.717V461.83M595.687 288.26L602.064 456.717V461.83M595.687 288.26C604.27 289.147 610.435 289.853 610.435 289.853C599.274 321.925 618.806 421.392 639.734 461.83H602.064M785.711 298.22C785.063 290.408 783.732 283.081 781.577 276.374C781.577 276.374 799.249 270.332 839.709 270.332C880.169 270.332 897.376 274.98 897.376 274.98C879.704 326.108 919.234 415.815 929 476.704H749.488C750.83 471.866 752.248 466.9 753.715 461.83M785.711 298.22H756.464C733.676 298.22 703.912 301.938 703.912 301.938C715.073 340.517 695.076 400.476 682.984 461.83H753.715M785.711 298.22C789.583 344.932 768.997 409 753.715 461.83M515.286 461.83H563.465M602.064 461.83H563.465M135.611 437.661V453.464H157.004V437.661H135.611ZM238.389 383.279V386.997H249.551V383.279H238.389ZM437.899 403.265H441.154L446.735 408.843H469.988V414.42H446.735L441.154 408.843H437.899V403.265ZM332.331 430.224H343.492V421.392L338.842 414.42H332.331V430.224ZM343.492 449.281V459.971H376.046V449.281H343.492Z" stroke="#FFF6E0" stroke-width="7"/>
</svg>
